<?xml version="1.0" encoding="UTF-8" standalone="no"?>
<!-- Created with Inkscape (http://www.inkscape.org/) -->

<svg
   xmlns:dc="http://purl.org/dc/elements/1.1/"
   xmlns:cc="http://creativecommons.org/ns#"
   xmlns:rdf="http://www.w3.org/1999/02/22-rdf-syntax-ns#"
   xmlns:svg="http://www.w3.org/2000/svg"
   xmlns="http://www.w3.org/2000/svg"
   xmlns:sodipodi="http://sodipodi.sourceforge.net/DTD/sodipodi-0.dtd"
   xmlns:inkscape="http://www.inkscape.org/namespaces/inkscape"
   width="512"
   height="512"
   viewBox="0 0 135.46666 135.46667"
   version="1.1"
   id="svg8"
   sodipodi:docname="logo.svg"
   inkscape:version="0.92.1 r15371"
   inkscape:export-filename="/home/bookchin/Code/orc/logo.png"
   inkscape:export-xdpi="96"
   inkscape:export-ydpi="96">
  <defs
     id="defs2">
    <inkscape:perspective
       sodipodi:type="inkscape:persp3d"
       inkscape:vp_x="0 : 67.733335 : 1"
       inkscape:vp_y="0 : 1000 : 0"
       inkscape:vp_z="135.46666 : 67.733335 : 1"
       inkscape:persp3d-origin="67.73333 : 45.155557 : 1"
       id="perspective4607" />
  </defs>
  <sodipodi:namedview
     id="base"
     pagecolor="#ffffff"
     bordercolor="#666666"
     borderopacity="1.0"
     inkscape:pageopacity="0.0"
     inkscape:pageshadow="2"
     inkscape:zoom="0.76916056"
     inkscape:cx="459.33963"
     inkscape:cy="231.38508"
     inkscape:document-units="mm"
     inkscape:current-layer="layer2"
     showgrid="false"
     units="px"
     inkscape:window-width="1916"
     inkscape:window-height="1032"
     inkscape:window-x="0"
     inkscape:window-y="46"
     inkscape:window-maximized="0"
     showguides="true"
     inkscape:guide-bbox="true">
    <sodipodi:guide
       position="67.718831,136.87428"
       orientation="1,0"
       id="guide4491"
       inkscape:locked="false" />
    <sodipodi:guide
       position="-0.16124518,67.722977"
       orientation="0,1"
       id="guide4493"
       inkscape:locked="false" />
  </sodipodi:namedview>
  <metadata
     id="metadata5">
    <rdf:RDF>
      <cc:Work
         rdf:about="">
        <dc:format>image/svg+xml</dc:format>
        <dc:type
           rdf:resource="http://purl.org/dc/dcmitype/StillImage" />
        <dc:title />
      </cc:Work>
    </rdf:RDF>
  </metadata>
  <g
     inkscape:groupmode="layer"
     id="layer2"
     inkscape:label="Layer 2" />
  <g
     inkscape:label="Layer 1"
     inkscape:groupmode="layer"
     id="layer1"
     transform="translate(0,-161.53332)">
    <g
       id="g5349"
       transform="matrix(1.1021553,0,0,1.1021553,-6.9190622,-21.644622)">
      <path
         id="path4636"
         transform="matrix(0.26458333,0,0,0.26458333,0,161.53332)"
         d="m 150.67188,36.039062 c -24.39772,-0.274998 -32.20873,28.000176 -30.95899,39.664063 1.20662,11.261721 5.57974,17.949582 6.6543,19.445313 0.15351,0.213675 0.24023,0.320312 0.24023,0.320312 0,0 -8.73399,-2.298204 -15.6289,-13.330078 0,0 15.16837,65.271128 65.27148,48.263668 0,0 16.66951,-7.32 34.33008,-20.42578 18.68636,-11.48069 29.10086,-40.989172 48.63281,18.94922 -28.93871,6.21422 -99.11957,30.89477 -142.71875,109.4961 L 40.279297,165.99609 c 0,0 -37.9825956,154.05324 61.505863,110.57813 0,0 -45.506047,131.00301 72.62695,170.07422 118.13297,39.0712 193.05859,-8.73242 193.05859,-8.73242 0,0 47.34453,-14.25014 45.50586,-104.34375 0,0 1.3785,-37.23166 -14.25,-62.97266 0,0 73.88707,39.3645 78.05664,-54.7793 l 1.83789,-54.58008 -98.28125,72.12696 c 0,0 -49.18372,-101.1255 -104.80273,-103.42383 0,0 15.16949,-87.795492 -34.93359,-78.142579 0,0 -19.16648,6.705216 -58.83594,37.232422 0,0 -34.47504,20.684197 -38.15235,-12.871094 0,0 0.46009,-22.983673 15.62891,-12.871093 0,0 5.05626,4.138047 0,15.169922 0,0 30.33637,-34.014558 -0.46094,-41.369141 -2.88725,-0.689537 -5.58742,-1.022498 -8.11132,-1.052735 z"
         style="fill:#800080;fill-rule:evenodd;stroke:#ffffff;stroke-width:6;stroke-linecap:butt;stroke-linejoin:miter;stroke-miterlimit:4;stroke-dasharray:none;stroke-opacity:1"
         inkscape:connector-curvature="0" />
      <g
         id="g5341">
        <path
           style="fill:#ffffff;fill-rule:evenodd;stroke:none;stroke-width:0.26458332px;stroke-linecap:butt;stroke-linejoin:miter;stroke-opacity:1"
           d="m 33.221372,263.85772 c -4.127876,-14.79156 10.147699,-24.59527 10.147699,-24.59527 0,0 -3.267903,21.15537 0.687979,27.69118 0,0 -4.815859,2.75192 -10.835678,-3.09591 z"
           id="path5164"
           inkscape:connector-curvature="0" />
        <path
           style="fill:#ffffff;fill-rule:evenodd;stroke:none;stroke-width:0.26458332px;stroke-linecap:butt;stroke-linejoin:miter;stroke-opacity:1"
           d="m 102.65145,264.1618 c 4.12787,-14.79156 -10.147713,-24.59527 -10.147713,-24.59527 0,0 3.267903,21.15537 -0.687979,27.69118 0,0 4.815859,2.75192 10.835692,-3.09591 z"
           id="path5164-3"
           inkscape:connector-curvature="0" />
        <path
           style="fill:#ffffff;fill-rule:evenodd;stroke:none;stroke-width:0.15128677px;stroke-linecap:butt;stroke-linejoin:miter;stroke-opacity:1"
           d="m 47.520126,268.9833 c -2.360289,-8.4577 5.802378,-14.06339 5.802378,-14.06339 0,0 -1.868562,12.09648 0.393382,15.83361 0,0 -2.753672,1.57352 -6.19576,-1.77022 z"
           id="path5164-4"
           inkscape:connector-curvature="0" />
        <path
           style="fill:#ffffff;fill-rule:evenodd;stroke:none;stroke-width:0.15128677px;stroke-linecap:butt;stroke-linejoin:miter;stroke-opacity:1"
           d="m 88.881856,269.15717 c 2.360286,-8.4577 -5.802383,-14.06339 -5.802383,-14.06339 0,0 1.868563,12.09648 -0.393381,15.83361 0,0 2.753672,1.57352 6.195764,-1.77022 z"
           id="path5164-3-5"
           inkscape:connector-curvature="0" />
      </g>
    </g>
  </g>
</svg>
