<?xml version="1.0" encoding="UTF-8" standalone="no"?>
<!-- Created with Inkscape (http://www.inkscape.org/) -->

<svg
   xmlns:dc="http://purl.org/dc/elements/1.1/"
   xmlns:cc="http://creativecommons.org/ns#"
   xmlns:rdf="http://www.w3.org/1999/02/22-rdf-syntax-ns#"
   xmlns:svg="http://www.w3.org/2000/svg"
   xmlns="http://www.w3.org/2000/svg"
   xmlns:sodipodi="http://sodipodi.sourceforge.net/DTD/sodipodi-0.dtd"
   xmlns:inkscape="http://www.inkscape.org/namespaces/inkscape"
   width="512"
   height="256"
   viewBox="0 0 135.46666 67.733335"
   version="1.1"
   id="svg8"
   sodipodi:docname="logo-full.svg"
   inkscape:version="0.92.1 r15371"
   inkscape:export-filename="/home/bookchin/Code/orc/logo-full.png"
   inkscape:export-xdpi="96"
   inkscape:export-ydpi="96">
  <defs
     id="defs2">
    <inkscape:perspective
       sodipodi:type="inkscape:persp3d"
       inkscape:vp_x="0 : 67.733335 : 1"
       inkscape:vp_y="0 : 1000 : 0"
       inkscape:vp_z="135.46666 : 67.733335 : 1"
       inkscape:persp3d-origin="67.73333 : 45.155557 : 1"
       id="perspective4607" />
  </defs>
  <sodipodi:namedview
     id="base"
     pagecolor="#ffffff"
     bordercolor="#666666"
     borderopacity="1.0"
     inkscape:pageopacity="0.0"
     inkscape:pageshadow="2"
     inkscape:zoom="1.5383211"
     inkscape:cx="350.61143"
     inkscape:cy="274.44177"
     inkscape:document-units="mm"
     inkscape:current-layer="layer1"
     showgrid="false"
     units="px"
     inkscape:window-width="1916"
     inkscape:window-height="1032"
     inkscape:window-x="0"
     inkscape:window-y="46"
     inkscape:window-maximized="0"
     showguides="true"
     inkscape:guide-bbox="true">
    <sodipodi:guide
       position="67.718831,136.87428"
       orientation="1,0"
       id="guide4491"
       inkscape:locked="false" />
    <sodipodi:guide
       position="-0.16124518,67.722977"
       orientation="0,1"
       id="guide4493"
       inkscape:locked="false" />
  </sodipodi:namedview>
  <metadata
     id="metadata5">
    <rdf:RDF>
      <cc:Work
         rdf:about="">
        <dc:format>image/svg+xml</dc:format>
        <dc:type
           rdf:resource="http://purl.org/dc/dcmitype/StillImage" />
        <dc:title></dc:title>
      </cc:Work>
    </rdf:RDF>
  </metadata>
  <g
     inkscape:groupmode="layer"
     id="layer2"
     inkscape:label="Layer 2"
     transform="translate(0,-67.733333)">
    <g
       aria-label="ONION ROUTED CLOUD"
       style="font-style:normal;font-weight:normal;font-size:10.48594856px;line-height:125%;font-family:sans-serif;letter-spacing:0px;word-spacing:0px;fill:#008000;fill-opacity:1;stroke:none;stroke-width:0.26214871px;stroke-linecap:butt;stroke-linejoin:miter;stroke-opacity:1"
       id="text5413" />
  </g>
  <g
     inkscape:label="Layer 1"
     inkscape:groupmode="layer"
     id="layer1"
     transform="translate(0,-229.26665)">
    <g
       id="g5773"
       transform="matrix(0.86405305,0,0,0.86405305,9.2029959,90.16384)">
      <path
         inkscape:connector-curvature="0"
         id="path5692"
         style="font-style:normal;font-variant:normal;font-weight:normal;font-stretch:normal;font-size:10.48594856px;line-height:125%;font-family:COCOGOOSE;-inkscape-font-specification:COCOGOOSE;letter-spacing:0px;word-spacing:0px;fill:#008000;fill-opacity:1;stroke:none;stroke-width:0.26214871px;stroke-linecap:butt;stroke-linejoin:miter;stroke-opacity:1"
         d="m 4.7764316,69.634516 q 0,0.435167 0.1468033,0.812661 0.1468033,0.377494 0.408952,0.660615 0.2673917,0.277877 0.6291569,0.44041 0.3617652,0.157289 0.7969321,0.157289 0.4351668,0 0.7969321,-0.157289 0.3670082,-0.162533 0.6291569,-0.44041 0.2673917,-0.283121 0.414195,-0.660615 0.1468032,-0.377494 0.1468032,-0.812661 0,-0.429924 -0.1468032,-0.807418 Q 8.4517566,68.444361 8.1843649,68.16124 7.9222162,67.87812 7.555208,67.715587 7.1934427,67.553055 6.7582759,67.553055 q -0.4351669,0 -0.7969321,0.162532 -0.3617652,0.162533 -0.6291569,0.445653 -0.2621487,0.283121 -0.408952,0.665858 -0.1468033,0.377494 -0.1468033,0.807418 z m -2.0237881,0.0052 q 0,-0.555755 0.1415603,-1.064324 0.1415603,-0.513811 0.4037091,-0.959464 0.2621487,-0.450896 0.6239139,-0.817904 0.3670082,-0.367008 0.812661,-0.623914 0.4456528,-0.262149 0.9542213,-0.403709 0.5138115,-0.146803 1.0695668,-0.146803 0.5505123,0 1.0643238,0.146803 0.5138114,0.14156 0.9594643,0.403709 0.4456528,0.256906 0.812661,0.623914 0.3670082,0.367008 0.623914,0.817904 0.262149,0.445653 0.403709,0.959464 0.146803,0.508569 0.146803,1.064324 0,0.555755 -0.146803,1.069567 -0.14156,0.508568 -0.403709,0.954221 -0.2569058,0.44041 -0.623914,0.807418 -0.3670082,0.361765 -0.812661,0.623914 -0.4456529,0.262149 -0.9594643,0.403709 -0.5138115,0.14156 -1.0643238,0.14156 -0.5557553,0 -1.0695668,-0.14156 Q 5.1801406,73.357028 4.7344878,73.094879 4.288835,72.83273 3.9218268,72.470965 3.5600616,72.103957 3.2979129,71.663547 3.0357641,71.217894 2.8942038,70.709326 2.7526435,70.195514 2.7526435,69.639759 Z"
         transform="translate(0,161.53332)" />
      <path
         inkscape:connector-curvature="0"
         id="path5694"
         style="font-style:normal;font-variant:normal;font-weight:normal;font-stretch:normal;font-size:10.48594856px;line-height:125%;font-family:COCOGOOSE;-inkscape-font-specification:COCOGOOSE;letter-spacing:0px;word-spacing:0px;fill:#008000;fill-opacity:1;stroke:none;stroke-width:0.26214871px;stroke-linecap:butt;stroke-linejoin:miter;stroke-opacity:1"
         d="m 12.085301,65.969677 q 0,-0.09437 0.05767,-0.162532 0.05767,-0.06816 0.173018,-0.06816 h 1.714453 q 0.0734,0 0.152046,0.0367 0.07864,0.0367 0.136317,0.125831 0.665858,1.07481 1.32123,2.118162 0.655372,1.043352 1.326472,2.118162 v -4.199623 q 0.02097,-0.09437 0.08389,-0.146803 0.06292,-0.05243 0.146803,-0.05243 h 1.494248 q 0.110102,0 0.183504,0.06292 0.0734,0.05767 0.0734,0.167775 v 7.35065 q 0,0.104859 -0.06292,0.157289 -0.06292,0.04719 -0.173018,0.04719 h -1.672509 q -0.06816,0 -0.120588,-0.04719 -0.05243,-0.04719 -0.110103,-0.125831 -0.697315,-1.153455 -1.378902,-2.280694 -0.681587,-1.127239 -1.384145,-2.280694 v 4.503715 q 0,0.115346 -0.05243,0.173018 -0.05243,0.05767 -0.188747,0.05767 h -1.489005 q -0.120588,0 -0.178261,-0.06292 -0.05243,-0.06816 -0.05243,-0.162532 z"
         transform="translate(0,161.53332)" />
      <path
         inkscape:connector-curvature="0"
         id="path5696"
         style="font-style:normal;font-variant:normal;font-weight:normal;font-stretch:normal;font-size:10.48594856px;line-height:125%;font-family:COCOGOOSE;-inkscape-font-specification:COCOGOOSE;letter-spacing:0px;word-spacing:0px;fill:#008000;fill-opacity:1;stroke:none;stroke-width:0.26214871px;stroke-linecap:butt;stroke-linejoin:miter;stroke-opacity:1"
         d="m 20.687056,65.969677 q 0,-0.09437 0.05767,-0.162532 0.05767,-0.06816 0.173018,-0.06816 h 1.541435 q 0.07864,0 0.167775,0.06292 0.08913,0.06292 0.08913,0.167775 v 7.324435 q 0,0.230691 -0.256905,0.230691 h -1.541435 q -0.230691,0 -0.230691,-0.230691 z"
         transform="translate(0,161.53332)" />
      <path
         inkscape:connector-curvature="0"
         id="path5698"
         style="font-style:normal;font-variant:normal;font-weight:normal;font-stretch:normal;font-size:10.48594856px;line-height:125%;font-family:COCOGOOSE;-inkscape-font-specification:COCOGOOSE;letter-spacing:0px;word-spacing:0px;fill:#008000;fill-opacity:1;stroke:none;stroke-width:0.26214871px;stroke-linecap:butt;stroke-linejoin:miter;stroke-opacity:1"
         d="m 26.055534,69.634516 q 0,0.435167 0.146803,0.812661 0.146803,0.377494 0.408952,0.660615 0.267392,0.277877 0.629157,0.44041 0.361765,0.157289 0.796932,0.157289 0.435167,0 0.796932,-0.157289 0.367008,-0.162533 0.629157,-0.44041 0.267392,-0.283121 0.414195,-0.660615 0.146803,-0.377494 0.146803,-0.812661 0,-0.429924 -0.146803,-0.807418 -0.146803,-0.382737 -0.414195,-0.665858 -0.262149,-0.28312 -0.629157,-0.445653 -0.361765,-0.162532 -0.796932,-0.162532 -0.435167,0 -0.796932,0.162532 -0.361765,0.162533 -0.629157,0.445653 -0.262149,0.283121 -0.408952,0.665858 -0.146803,0.377494 -0.146803,0.807418 z m -2.023788,0.0052 q 0,-0.555755 0.14156,-1.064324 0.14156,-0.513811 0.403709,-0.959464 0.262149,-0.450896 0.623914,-0.817904 0.367008,-0.367008 0.812661,-0.623914 0.445653,-0.262149 0.954221,-0.403709 0.513812,-0.146803 1.069567,-0.146803 0.550513,0 1.064324,0.146803 0.513811,0.14156 0.959464,0.403709 0.445653,0.256906 0.812661,0.623914 0.367008,0.367008 0.623914,0.817904 0.262149,0.445653 0.403709,0.959464 0.146804,0.508569 0.146804,1.064324 0,0.555755 -0.146804,1.069567 -0.14156,0.508568 -0.403709,0.954221 -0.256906,0.44041 -0.623914,0.807418 -0.367008,0.361765 -0.812661,0.623914 -0.445653,0.262149 -0.959464,0.403709 -0.513811,0.14156 -1.064324,0.14156 -0.555755,0 -1.069567,-0.14156 -0.508568,-0.14156 -0.954221,-0.403709 -0.445653,-0.262149 -0.812661,-0.623914 -0.361765,-0.367008 -0.623914,-0.807418 -0.262149,-0.445653 -0.403709,-0.954221 -0.14156,-0.513812 -0.14156,-1.069567 z"
         transform="translate(0,161.53332)" />
      <path
         inkscape:connector-curvature="0"
         id="path5700"
         style="font-style:normal;font-variant:normal;font-weight:normal;font-stretch:normal;font-size:10.48594856px;line-height:125%;font-family:COCOGOOSE;-inkscape-font-specification:COCOGOOSE;letter-spacing:0px;word-spacing:0px;fill:#008000;fill-opacity:1;stroke:none;stroke-width:0.26214871px;stroke-linecap:butt;stroke-linejoin:miter;stroke-opacity:1"
         d="m 33.364404,65.969677 q 0,-0.09437 0.05767,-0.162532 0.05767,-0.06816 0.173019,-0.06816 h 1.714452 q 0.0734,0 0.152046,0.0367 0.07865,0.0367 0.136318,0.125831 0.665857,1.07481 1.321229,2.118162 0.655372,1.043352 1.326473,2.118162 v -4.199623 q 0.02097,-0.09437 0.08389,-0.146803 0.06292,-0.05243 0.146804,-0.05243 h 1.494247 q 0.110103,0 0.183504,0.06292 0.0734,0.05767 0.0734,0.167775 v 7.35065 q 0,0.104859 -0.06292,0.157289 -0.06291,0.04719 -0.173018,0.04719 h -1.672509 q -0.06816,0 -0.120588,-0.04719 -0.05243,-0.04719 -0.110103,-0.125831 -0.697315,-1.153455 -1.378902,-2.280694 -0.681586,-1.127239 -1.384145,-2.280694 v 4.503715 q 0,0.115346 -0.05243,0.173018 -0.05243,0.05767 -0.188747,0.05767 H 33.59509 q -0.120589,0 -0.178262,-0.06292 -0.05243,-0.06816 -0.05243,-0.162532 z"
         transform="translate(0,161.53332)" />
      <path
         inkscape:connector-curvature="0"
         id="path5702"
         style="font-style:normal;font-variant:normal;font-weight:normal;font-stretch:normal;font-size:10.48594856px;line-height:125%;font-family:COCOGOOSE;-inkscape-font-specification:COCOGOOSE;letter-spacing:0px;word-spacing:0px;fill:#008000;fill-opacity:1;stroke:none;stroke-width:0.26214871px;stroke-linecap:butt;stroke-linejoin:miter;stroke-opacity:1"
         d="m 45.253011,65.980163 q 0,-0.110102 0.05767,-0.173018 0.05767,-0.06816 0.173018,-0.06816 h 3.386962 q 0.540026,0 1.011894,0.204476 0.471867,0.199233 0.823147,0.54527 0.351279,0.346036 0.550512,0.812661 0.204476,0.461381 0.204476,0.985679 0,0.356522 -0.09962,0.681586 -0.09437,0.319822 -0.267391,0.602942 -0.173018,0.277878 -0.414195,0.508569 -0.235934,0.225448 -0.519055,0.38798 l 1.347445,2.5376 q 0.0367,0.0734 0.09437,0.173018 0.05767,0.09962 0.05767,0.173018 0,0.08389 -0.05767,0.131074 -0.05243,0.04194 -0.146803,0.04194 h -1.79834 q -0.08913,0 -0.162532,-0.05243 -0.06816,-0.05243 -0.08913,-0.14156 l -1.274043,-2.396039 h -0.849362 v 2.364581 q 0,0.225448 -0.241176,0.225448 h -1.557164 q -0.104859,0 -0.167775,-0.05243 -0.06292,-0.05767 -0.06292,-0.173018 z m 4.105249,2.327881 q 0,-0.15729 -0.05767,-0.314579 -0.05767,-0.157289 -0.162532,-0.288363 -0.104859,-0.131075 -0.251663,-0.220205 -0.146803,-0.08913 -0.325064,-0.115346 -0.146803,-0.01049 -0.277878,-0.01573 -0.125831,-0.01049 -0.277877,-0.01049 h -0.723531 v 1.924172 h 0.964708 q 0.09437,0 0.167775,-0.0052 0.0734,-0.0052 0.162532,-0.01573 0.183504,-0.02097 0.330307,-0.10486 0.146804,-0.08913 0.24642,-0.214961 0.09962,-0.131075 0.152046,-0.288364 0.05243,-0.162532 0.05243,-0.330307 z"
         transform="translate(0,161.53332)" />
      <path
         inkscape:connector-curvature="0"
         id="path5704"
         style="font-style:normal;font-variant:normal;font-weight:normal;font-stretch:normal;font-size:10.48594856px;line-height:125%;font-family:COCOGOOSE;-inkscape-font-specification:COCOGOOSE;letter-spacing:0px;word-spacing:0px;fill:#008000;fill-opacity:1;stroke:none;stroke-width:0.26214871px;stroke-linecap:butt;stroke-linejoin:miter;stroke-opacity:1"
         d="m 54.277481,69.634516 q 0,0.435167 0.146803,0.812661 0.146803,0.377494 0.408952,0.660615 0.267392,0.277877 0.629157,0.44041 0.361765,0.157289 0.796932,0.157289 0.435167,0 0.796932,-0.157289 0.367008,-0.162533 0.629157,-0.44041 0.267392,-0.283121 0.414195,-0.660615 0.146803,-0.377494 0.146803,-0.812661 0,-0.429924 -0.146803,-0.807418 -0.146803,-0.382737 -0.414195,-0.665858 -0.262149,-0.28312 -0.629157,-0.445653 -0.361765,-0.162532 -0.796932,-0.162532 -0.435167,0 -0.796932,0.162532 -0.361765,0.162533 -0.629157,0.445653 -0.262149,0.283121 -0.408952,0.665858 -0.146803,0.377494 -0.146803,0.807418 z m -2.023788,0.0052 q 0,-0.555755 0.14156,-1.064324 0.14156,-0.513811 0.403709,-0.959464 0.262149,-0.450896 0.623914,-0.817904 0.367008,-0.367008 0.812661,-0.623914 0.445653,-0.262149 0.954221,-0.403709 0.513812,-0.146803 1.069567,-0.146803 0.550512,0 1.064324,0.146803 0.513811,0.14156 0.959464,0.403709 0.445653,0.256906 0.812661,0.623914 0.367008,0.367008 0.623914,0.817904 0.262149,0.445653 0.403709,0.959464 0.146803,0.508569 0.146803,1.064324 0,0.555755 -0.146803,1.069567 -0.14156,0.508568 -0.403709,0.954221 -0.256906,0.44041 -0.623914,0.807418 -0.367008,0.361765 -0.812661,0.623914 -0.445653,0.262149 -0.959464,0.403709 -0.513812,0.14156 -1.064324,0.14156 -0.555755,0 -1.069567,-0.14156 -0.508568,-0.14156 -0.954221,-0.403709 -0.445653,-0.262149 -0.812661,-0.623914 -0.361765,-0.367008 -0.623914,-0.807418 -0.262149,-0.445653 -0.403709,-0.954221 -0.14156,-0.513812 -0.14156,-1.069567 z"
         transform="translate(0,161.53332)" />
      <path
         inkscape:connector-curvature="0"
         id="path5706"
         style="font-style:normal;font-variant:normal;font-weight:normal;font-stretch:normal;font-size:10.48594856px;line-height:125%;font-family:COCOGOOSE;-inkscape-font-specification:COCOGOOSE;letter-spacing:0px;word-spacing:0px;fill:#008000;fill-opacity:1;stroke:none;stroke-width:0.26214871px;stroke-linecap:butt;stroke-linejoin:miter;stroke-opacity:1"
         d="m 63.573438,70.415719 q 0,0.38798 0.104859,0.660615 0.110103,0.267392 0.283121,0.44041 0.178261,0.167775 0.408952,0.24642 0.235934,0.07864 0.487596,0.07864 0.262149,0 0.49284,-0.08913 0.235934,-0.09437 0.408952,-0.272635 0.178261,-0.183504 0.277878,-0.450896 0.104859,-0.267391 0.104859,-0.613428 v -4.446038 q 0,-0.09437 0.06292,-0.162532 0.06816,-0.06816 0.178261,-0.06816 h 1.530948 q 0.120589,0 0.188747,0.0734 0.06816,0.06816 0.06816,0.157289 v 4.419827 q 0,0.917521 -0.272635,1.541435 -0.267391,0.623914 -0.72353,1.006651 -0.456139,0.377494 -1.059081,0.545269 -0.597699,0.162532 -1.258314,0.162532 -0.660614,0 -1.263556,-0.167775 -0.602943,-0.173018 -1.059081,-0.555755 -0.456139,-0.38798 -0.728774,-1.006651 -0.267391,-0.623914 -0.267391,-1.525706 v -4.419824 q 0,-0.08913 0.05767,-0.157289 0.06292,-0.0734 0.152047,-0.0734 h 1.572892 q 0.07864,0 0.162532,0.06816 0.08913,0.06292 0.08913,0.162532 z"
         transform="translate(0,161.53332)" />
      <path
         inkscape:connector-curvature="0"
         id="path5708"
         style="font-style:normal;font-variant:normal;font-weight:normal;font-stretch:normal;font-size:10.48594856px;line-height:125%;font-family:COCOGOOSE;-inkscape-font-specification:COCOGOOSE;letter-spacing:0px;word-spacing:0px;fill:#008000;fill-opacity:1;stroke:none;stroke-width:0.26214871px;stroke-linecap:butt;stroke-linejoin:miter;stroke-opacity:1"
         d="m 69.271408,65.969677 q 0,-0.104859 0.06816,-0.167775 0.0734,-0.06292 0.178261,-0.06292 h 5.646683 q 0.09437,0 0.167775,0.05767 0.0734,0.05767 0.08389,0.173018 v 1.305501 q 0,0.09437 -0.06816,0.183504 -0.06292,0.08389 -0.183504,0.08389 h -1.808826 v 5.735814 q 0,0.09437 -0.06816,0.173018 -0.06816,0.0734 -0.178261,0.0734 h -1.541434 q -0.08913,0 -0.167775,-0.06816 -0.07865,-0.0734 -0.07865,-0.178261 v -5.735814 h -1.803583 q -0.10486,0 -0.178261,-0.06816 -0.06816,-0.06816 -0.06816,-0.199233 z"
         transform="translate(0,161.53332)" />
      <path
         inkscape:connector-curvature="0"
         id="path5710"
         style="font-style:normal;font-variant:normal;font-weight:normal;font-stretch:normal;font-size:10.48594856px;line-height:125%;font-family:COCOGOOSE;-inkscape-font-specification:COCOGOOSE;letter-spacing:0px;word-spacing:0px;fill:#008000;fill-opacity:1;stroke:none;stroke-width:0.26214871px;stroke-linecap:butt;stroke-linejoin:miter;stroke-opacity:1"
         d="m 76.679892,65.980163 q 0,-0.110102 0.05767,-0.173018 0.06291,-0.06816 0.173018,-0.06816 h 5.206273 q 0.115346,0 0.178261,0.06816 0.06292,0.06816 0.06292,0.183504 v 1.300258 q 0,0.08913 -0.06292,0.173018 -0.06292,0.07864 -0.183504,0.07864 h -3.397447 v 1.295015 h 2.621487 q 0.09962,0 0.162532,0.04719 0.06816,0.04719 0.06816,0.157289 v 1.132482 q 0,0.0734 -0.05767,0.141561 -0.05767,0.06816 -0.167775,0.06816 h -2.62673 v 1.336959 h 3.523279 q 0.235933,0 0.235933,0.241177 v 1.321229 q 0,0.05243 -0.04194,0.09437 -0.02097,0.146803 -0.214962,0.146803 h -5.30589 q -0.10486,0 -0.167775,-0.05243 -0.06292,-0.05767 -0.06292,-0.173018 z"
         transform="translate(0,161.53332)" />
      <path
         inkscape:connector-curvature="0"
         id="path5712"
         style="font-style:normal;font-variant:normal;font-weight:normal;font-stretch:normal;font-size:10.48594856px;line-height:125%;font-family:COCOGOOSE;-inkscape-font-specification:COCOGOOSE;letter-spacing:0px;word-spacing:0px;fill:#008000;fill-opacity:1;stroke:none;stroke-width:0.26214871px;stroke-linecap:butt;stroke-linejoin:miter;stroke-opacity:1"
         d="m 90.508561,69.639759 q 0,0.555755 -0.14156,1.059081 -0.14156,0.498082 -0.403709,0.933249 -0.262149,0.429924 -0.629157,0.781203 -0.361765,0.35128 -0.807418,0.5977 -0.44041,0.246419 -0.954221,0.382737 -0.513812,0.131074 -1.064324,0.131074 h -2.584786 q -0.09437,0 -0.167776,-0.04194 -0.0734,-0.04194 -0.0734,-0.178261 v -7.324435 q 0,-0.110102 0.05767,-0.178261 0.06292,-0.06816 0.183504,-0.06816 h 2.584786 q 0.550512,0 1.059081,0.136318 0.513811,0.136317 0.954221,0.38798 0.445653,0.251662 0.812661,0.602942 0.367008,0.351279 0.623914,0.786446 0.262149,0.435167 0.403709,0.938492 0.146803,0.503326 0.146803,1.053838 z M 85.71124,67.615971 v 4.031847 h 0.44041 q 0.120588,0 0.235934,-0.0052 0.115345,-0.01049 0.23069,-0.02097 0.393223,-0.03146 0.734017,-0.188747 0.340793,-0.162532 0.592456,-0.419438 0.256906,-0.262148 0.398466,-0.613428 0.146803,-0.351279 0.146803,-0.765474 0,-0.44041 -0.167775,-0.807418 -0.162532,-0.372251 -0.445653,-0.639643 -0.28312,-0.272634 -0.665858,-0.419438 -0.377494,-0.152046 -0.807418,-0.152046 z"
         transform="translate(0,161.53332)" />
      <path
         inkscape:connector-curvature="0"
         id="path5714"
         style="font-style:normal;font-variant:normal;font-weight:normal;font-stretch:normal;font-size:10.48594856px;line-height:125%;font-family:COCOGOOSE;-inkscape-font-specification:COCOGOOSE;letter-spacing:0px;word-spacing:0px;fill:#008000;fill-opacity:1;stroke:none;stroke-width:0.26214871px;stroke-linecap:butt;stroke-linejoin:miter;stroke-opacity:1"
         d="m 101.13443,66.305227 q 0.0891,0.05243 0.13108,0.136318 0.0419,0.08389 -0.0157,0.199233 l -0.88606,1.258314 q -0.0577,0.08913 -0.12584,0.104859 -0.0629,0.01049 -0.15728,-0.04719 -0.25691,-0.19399 -0.566246,-0.298849 -0.309335,-0.10486 -0.655371,-0.10486 -0.429924,0 -0.79169,0.162532 -0.361765,0.162533 -0.623913,0.445653 -0.262149,0.283121 -0.408952,0.660615 -0.146804,0.377494 -0.146804,0.807418 0,0.429924 0.146804,0.807418 0.146803,0.372251 0.408952,0.655372 0.262148,0.277878 0.623913,0.44041 0.361766,0.162532 0.79169,0.162532 0.346036,0 0.660614,-0.10486 0.314579,-0.110102 0.571483,-0.304092 0.0944,-0.05767 0.15729,-0.04719 0.0629,0.01049 0.12583,0.09437 l 0.89655,1.289771 q 0.0577,0.115346 0.0157,0.19399 -0.0419,0.07864 -0.13107,0.131075 -0.49284,0.330307 -1.06433,0.513811 -0.56624,0.178261 -1.195397,0.178261 -0.555755,0 -1.069566,-0.14156 -0.508569,-0.14156 -0.954222,-0.403709 -0.445652,-0.262149 -0.812661,-0.623914 -0.361765,-0.367008 -0.623914,-0.807418 -0.262148,-0.445653 -0.403709,-0.954221 -0.14156,-0.513812 -0.14156,-1.069567 0,-0.555755 0.14156,-1.064324 0.141561,-0.513811 0.403709,-0.959464 0.262149,-0.450896 0.623914,-0.817904 0.367009,-0.367008 0.812661,-0.623914 0.445653,-0.262149 0.954222,-0.403709 0.513811,-0.146803 1.069566,-0.146803 0.629157,0 1.184917,0.178261 0.56099,0.173018 1.05383,0.503325 z"
         transform="translate(0,161.53332)" />
      <path
         inkscape:connector-curvature="0"
         id="path5716"
         style="font-style:normal;font-variant:normal;font-weight:normal;font-stretch:normal;font-size:10.48594856px;line-height:125%;font-family:COCOGOOSE;-inkscape-font-specification:COCOGOOSE;letter-spacing:0px;word-spacing:0px;fill:#008000;fill-opacity:1;stroke:none;stroke-width:0.26214871px;stroke-linecap:butt;stroke-linejoin:miter;stroke-opacity:1"
         d="m 102.40405,65.964434 q 0,-0.09437 0.0629,-0.162532 0.0629,-0.06816 0.17302,-0.06816 h 1.55192 q 0.0891,0 0.16254,0.06292 0.0734,0.06292 0.0786,0.167775 v 5.704356 h 2.88364 q 0.0944,0 0.16253,0.06292 0.0682,0.06292 0.0682,0.173018 v 1.378902 q 0,0.08913 -0.0629,0.162532 -0.0577,0.0734 -0.16777,0.07865 h -4.68198 q -0.23069,0 -0.23069,-0.230691 z"
         transform="translate(0,161.53332)" />
      <path
         inkscape:connector-curvature="0"
         id="path5718"
         style="font-style:normal;font-variant:normal;font-weight:normal;font-stretch:normal;font-size:10.48594856px;line-height:125%;font-family:COCOGOOSE;-inkscape-font-specification:COCOGOOSE;letter-spacing:0px;word-spacing:0px;fill:#008000;fill-opacity:1;stroke:none;stroke-width:0.26214871px;stroke-linecap:butt;stroke-linejoin:miter;stroke-opacity:1"
         d="m 110.22985,69.634516 q 0,0.435167 0.1468,0.812661 0.1468,0.377494 0.40895,0.660615 0.26739,0.277877 0.62916,0.44041 0.36176,0.157289 0.79693,0.157289 0.43517,0 0.79693,-0.157289 0.36701,-0.162533 0.62916,-0.44041 0.26739,-0.283121 0.41419,-0.660615 0.14681,-0.377494 0.14681,-0.812661 0,-0.429924 -0.14681,-0.807418 -0.1468,-0.382737 -0.41419,-0.665858 -0.26215,-0.28312 -0.62916,-0.445653 -0.36176,-0.162532 -0.79693,-0.162532 -0.43517,0 -0.79693,0.162532 -0.36177,0.162533 -0.62916,0.445653 -0.26215,0.283121 -0.40895,0.665858 -0.1468,0.377494 -0.1468,0.807418 z m -2.02379,0.0052 q 0,-0.555755 0.14156,-1.064324 0.14156,-0.513811 0.40371,-0.959464 0.26215,-0.450896 0.62391,-0.817904 0.36701,-0.367008 0.81266,-0.623914 0.44566,-0.262149 0.95422,-0.403709 0.51382,-0.146803 1.06957,-0.146803 0.55051,0 1.06432,0.146803 0.51382,0.14156 0.95947,0.403709 0.44565,0.256906 0.81266,0.623914 0.36701,0.367008 0.62391,0.817904 0.26215,0.445653 0.40371,0.959464 0.14681,0.508569 0.14681,1.064324 0,0.555755 -0.14681,1.069567 -0.14156,0.508568 -0.40371,0.954221 -0.2569,0.44041 -0.62391,0.807418 -0.36701,0.361765 -0.81266,0.623914 -0.44565,0.262149 -0.95947,0.403709 -0.51381,0.14156 -1.06432,0.14156 -0.55575,0 -1.06957,-0.14156 -0.50856,-0.14156 -0.95422,-0.403709 -0.44565,-0.262149 -0.81266,-0.623914 -0.36176,-0.367008 -0.62391,-0.807418 -0.26215,-0.445653 -0.40371,-0.954221 -0.14156,-0.513812 -0.14156,-1.069567 z"
         transform="translate(0,161.53332)" />
      <path
         inkscape:connector-curvature="0"
         id="path5720"
         style="font-style:normal;font-variant:normal;font-weight:normal;font-stretch:normal;font-size:10.48594856px;line-height:125%;font-family:COCOGOOSE;-inkscape-font-specification:COCOGOOSE;letter-spacing:0px;word-spacing:0px;fill:#008000;fill-opacity:1;stroke:none;stroke-width:0.26214871px;stroke-linecap:butt;stroke-linejoin:miter;stroke-opacity:1"
         d="m 119.5258,70.415719 q 0,0.38798 0.10486,0.660615 0.11011,0.267392 0.28312,0.44041 0.17826,0.167775 0.40896,0.24642 0.23593,0.07864 0.48759,0.07864 0.26215,0 0.49284,-0.08913 0.23594,-0.09437 0.40895,-0.272635 0.17826,-0.183504 0.27788,-0.450896 0.10486,-0.267391 0.10486,-0.613428 v -4.446038 q 0,-0.09437 0.0629,-0.162532 0.0682,-0.06816 0.17826,-0.06816 h 1.53095 q 0.12058,0 0.18874,0.0734 0.0682,0.06816 0.0682,0.157289 v 4.419827 q 0,0.917521 -0.27263,1.541435 -0.26739,0.623914 -0.72353,1.006651 -0.45614,0.377494 -1.05908,0.545269 -0.5977,0.162532 -1.25832,0.162532 -0.66061,0 -1.26355,-0.167775 -0.60295,-0.173018 -1.05909,-0.555755 -0.45613,-0.38798 -0.72877,-1.006651 -0.26739,-0.623914 -0.26739,-1.525706 v -4.419824 q 0,-0.08913 0.0577,-0.157289 0.0629,-0.0734 0.15205,-0.0734 h 1.57289 q 0.0786,0 0.16253,0.06816 0.0891,0.06292 0.0891,0.162532 z"
         transform="translate(0,161.53332)" />
      <path
         inkscape:connector-curvature="0"
         id="path5722"
         style="font-style:normal;font-variant:normal;font-weight:normal;font-stretch:normal;font-size:10.48594856px;line-height:125%;font-family:COCOGOOSE;-inkscape-font-specification:COCOGOOSE;letter-spacing:0px;word-spacing:0px;fill:#008000;fill-opacity:1;stroke:none;stroke-width:0.26214871px;stroke-linecap:butt;stroke-linejoin:miter;stroke-opacity:1"
         d="m 132.39092,69.639759 q 0,0.555755 -0.14156,1.059081 -0.14156,0.498082 -0.40371,0.933249 -0.26215,0.429924 -0.62916,0.781203 -0.36177,0.35128 -0.80742,0.5977 -0.44041,0.246419 -0.95422,0.382737 -0.51381,0.131074 -1.06432,0.131074 h -2.58479 q -0.0944,0 -0.16777,-0.04194 -0.0734,-0.04194 -0.0734,-0.178261 v -7.324435 q 0,-0.110102 0.0577,-0.178261 0.0629,-0.06816 0.1835,-0.06816 h 2.58479 q 0.55051,0 1.05908,0.136318 0.51381,0.136317 0.95422,0.38798 0.44565,0.251662 0.81266,0.602942 0.36701,0.351279 0.62391,0.786446 0.26215,0.435167 0.40371,0.938492 0.14681,0.503326 0.14681,1.053838 z m -4.79733,-2.023788 v 4.031847 h 0.44041 q 0.12059,0 0.23594,-0.0052 0.11534,-0.01049 0.23069,-0.02097 0.39322,-0.03146 0.73402,-0.188747 0.34079,-0.162532 0.59245,-0.419438 0.25691,-0.262148 0.39847,-0.613428 0.1468,-0.351279 0.1468,-0.765474 0,-0.44041 -0.16777,-0.807418 -0.16254,-0.372251 -0.44566,-0.639643 -0.28312,-0.272634 -0.66585,-0.419438 -0.3775,-0.152046 -0.80742,-0.152046 z"
         transform="translate(0,161.53332)" />
      <g
         transform="matrix(0.47257945,0,0,0.47257945,1.9557114,86.41437)"
         id="g5690">
        <g
           id="text5391"
           style="font-style:normal;font-weight:normal;font-size:121.41842651px;line-height:125%;font-family:sans-serif;letter-spacing:0px;word-spacing:0px;fill:#800080;fill-opacity:1;stroke:none;stroke-width:3.03546023px;stroke-linecap:butt;stroke-linejoin:miter;stroke-opacity:1"
           transform="translate(0,161.53332)"
           aria-label="RC">
          <path
             inkscape:connector-curvature="0"
             id="path5725"
             style="font-style:normal;font-variant:normal;font-weight:normal;font-stretch:normal;font-family:COCOGOOSE;-inkscape-font-specification:COCOGOOSE;fill:#800080;stroke-width:3.03546023px"
             d="m 120.53099,37.151092 q 0,-1.274893 0.6678,-2.003404 0.6678,-0.78922 2.0034,-0.78922 h 39.21815 q 6.25305,0 11.71688,2.36766 5.46383,2.30695 9.53135,6.313758 4.06751,4.006808 6.37446,9.409928 2.36766,5.342411 2.36766,11.413332 0,4.128227 -1.15347,7.892198 -1.09277,3.703262 -3.09617,6.981559 -2.00341,3.217589 -4.79603,5.888794 -2.73191,2.610496 -6.01021,4.492482 l 15.60227,29.383261 q 0.42496,0.84993 1.09276,2.0034 0.6678,1.15348 0.6678,2.00341 0,0.97134 -0.6678,1.51773 -0.60709,0.48567 -1.69986,0.48567 h -20.82326 q -1.03205,0 -1.88198,-0.60709 -0.78922,-0.60709 -1.03206,-1.63915 L 153.86034,94.521299 h -9.83489 v 27.379851 q 0,2.6105 -2.79262,2.6105 h -18.03064 q -1.21418,0 -1.94269,-0.60709 -0.72851,-0.6678 -0.72851,-2.00341 z m 47.53531,26.954891 q 0,-1.821277 -0.6678,-3.642553 -0.6678,-1.821276 -1.88199,-3.339007 -1.21418,-1.51773 -2.91404,-2.549787 -1.69986,-1.032056 -3.76397,-1.335602 -1.69986,-0.121419 -3.21759,-0.182128 -1.45702,-0.121418 -3.21759,-0.121418 h -8.37787 v 22.280281 h 11.1705 q 1.09276,0 1.94269,-0.06071 0.84993,-0.06071 1.88199,-0.182128 2.12482,-0.242837 3.82468,-1.214184 1.69985,-1.032057 2.85333,-2.489078 1.15348,-1.51773 1.76057,-3.339007 0.60709,-1.881985 0.60709,-3.82468 z" />
          <path
             inkscape:connector-curvature="0"
             id="path5727"
             style="font-style:normal;font-variant:normal;font-weight:normal;font-stretch:normal;font-family:COCOGOOSE;-inkscape-font-specification:COCOGOOSE;fill:#800080;stroke-width:3.03546023px"
             d="m 274.56544,40.915063 q 1.03205,0.607093 1.51773,1.57844 0.48567,0.971347 -0.18213,2.30695 l -10.25986,14.570211 q -0.6678,1.032057 -1.45702,1.214185 -0.72851,0.121418 -1.82128,-0.546383 -2.97475,-2.246241 -6.55659,-3.460426 -3.58185,-1.214184 -7.58865,-1.214184 -4.97816,0 -9.16709,1.881986 -4.18894,1.881985 -7.2244,5.160283 -3.03546,3.278297 -4.73532,7.649361 -1.69986,4.371063 -1.69986,9.349219 0,4.978155 1.69986,9.349218 1.69986,4.310355 4.73532,7.588652 3.03546,3.217588 7.2244,5.099575 4.18893,1.88198 9.16709,1.88198 4.0068,0 7.64936,-1.21418 3.64255,-1.27489 6.6173,-3.521134 1.09277,-0.667801 1.82128,-0.546383 0.72851,0.121419 1.45702,1.092766 l 10.38127,14.934471 q 0.66781,1.3356 0.18213,2.24624 -0.48567,0.91063 -1.51773,1.51773 -5.70666,3.82468 -12.32397,5.9495 -6.55659,2.06411 -13.8417,2.06411 -6.43518,0 -12.38468,-1.63915 -5.88879,-1.63914 -11.04908,-4.67461 -5.16028,-3.03546 -9.40992,-7.22439 -4.18894,-4.24965 -7.2244,-9.34922 -3.03546,-5.160284 -4.67461,-11.049077 -1.63915,-5.949503 -1.63915,-12.38468 0,-6.435177 1.63915,-12.32397 1.63915,-5.949503 4.67461,-11.109786 3.03546,-5.220993 7.2244,-9.470638 4.24964,-4.249644 9.40992,-7.224396 5.16029,-3.035461 11.04908,-4.674609 5.9495,-1.699858 12.38468,-1.699858 7.28511,0 13.72028,2.064113 6.49589,2.003404 12.20256,5.828084 z" />
        </g>
        <g
           id="g5349"
           transform="matrix(1.1021553,0,0,1.1021553,-6.9190622,-21.644622)">
          <path
             id="path4636"
             transform="matrix(0.26458333,0,0,0.26458333,0,161.53332)"
             d="m 150.67188,36.039062 c -24.39772,-0.274998 -32.20873,28.000176 -30.95899,39.664063 1.20662,11.261721 5.57974,17.949582 6.6543,19.445313 0.15351,0.213675 0.24023,0.320312 0.24023,0.320312 0,0 -8.73399,-2.298204 -15.6289,-13.330078 0,0 15.16837,65.271128 65.27148,48.263668 0,0 16.66951,-7.32 34.33008,-20.42578 18.68636,-11.48069 29.10086,-40.989172 48.63281,18.94922 -28.93871,6.21422 -99.11957,30.89477 -142.71875,109.4961 L 40.279297,165.99609 c 0,0 -37.9825956,154.05324 61.505863,110.57813 0,0 -45.506047,131.00301 72.62695,170.07422 118.13297,39.0712 193.05859,-8.73242 193.05859,-8.73242 0,0 47.34453,-14.25014 45.50586,-104.34375 0,0 1.3785,-37.23166 -14.25,-62.97266 0,0 73.88707,39.3645 78.05664,-54.7793 l 1.83789,-54.58008 -98.28125,72.12696 c 0,0 -49.18372,-101.1255 -104.80273,-103.42383 0,0 15.16949,-87.795492 -34.93359,-78.142579 0,0 -19.16648,6.705216 -58.83594,37.232422 0,0 -34.47504,20.684197 -38.15235,-12.871094 0,0 0.46009,-22.983673 15.62891,-12.871093 0,0 5.05626,4.138047 0,15.169922 0,0 30.33637,-34.014558 -0.46094,-41.369141 -2.88725,-0.689537 -5.58742,-1.022498 -8.11132,-1.052735 z"
             style="fill:#800080;fill-rule:evenodd;stroke:#ffffff;stroke-width:6;stroke-linecap:butt;stroke-linejoin:miter;stroke-miterlimit:4;stroke-dasharray:none;stroke-opacity:1"
             inkscape:connector-curvature="0" />
          <g
             id="g5341">
            <path
               style="fill:#ffffff;fill-rule:evenodd;stroke:none;stroke-width:0.26458332px;stroke-linecap:butt;stroke-linejoin:miter;stroke-opacity:1"
               d="m 33.221372,263.85772 c -4.127876,-14.79156 10.147699,-24.59527 10.147699,-24.59527 0,0 -3.267903,21.15537 0.687979,27.69118 0,0 -4.815859,2.75192 -10.835678,-3.09591 z"
               id="path5164"
               inkscape:connector-curvature="0" />
            <path
               style="fill:#ffffff;fill-rule:evenodd;stroke:none;stroke-width:0.26458332px;stroke-linecap:butt;stroke-linejoin:miter;stroke-opacity:1"
               d="m 102.65145,264.1618 c 4.12787,-14.79156 -10.147713,-24.59527 -10.147713,-24.59527 0,0 3.267903,21.15537 -0.687979,27.69118 0,0 4.815859,2.75192 10.835692,-3.09591 z"
               id="path5164-3"
               inkscape:connector-curvature="0" />
            <path
               style="fill:#ffffff;fill-rule:evenodd;stroke:none;stroke-width:0.15128677px;stroke-linecap:butt;stroke-linejoin:miter;stroke-opacity:1"
               d="m 47.520126,268.9833 c -2.360289,-8.4577 5.802378,-14.06339 5.802378,-14.06339 0,0 -1.868562,12.09648 0.393382,15.83361 0,0 -2.753672,1.57352 -6.19576,-1.77022 z"
               id="path5164-4"
               inkscape:connector-curvature="0" />
            <path
               style="fill:#ffffff;fill-rule:evenodd;stroke:none;stroke-width:0.15128677px;stroke-linecap:butt;stroke-linejoin:miter;stroke-opacity:1"
               d="m 88.881856,269.15717 c 2.360286,-8.4577 -5.802383,-14.06339 -5.802383,-14.06339 0,0 1.868563,12.09648 -0.393381,15.83361 0,0 2.753672,1.57352 6.195764,-1.77022 z"
               id="path5164-3-5"
               inkscape:connector-curvature="0" />
          </g>
        </g>
      </g>
    </g>
  </g>
</svg>
